<svg width="24" height="24" viewBox="0 0 24 24" fill="none" xmlns="http://www.w3.org/2000/svg">
<g clip-path="url(#clip0_87_345)">
<path d="M17.32 6.03376C15.623 4.51676 13.341 3.79776 11.062 4.05276C7.45699 4.45876 4.50799 7.36476 4.04899 10.9608C3.67599 13.8928 5.21799 16.7348 6.91299 18.2528C7.60299 18.8698 7.99899 19.8278 7.99899 20.8828C7.99899 22.6018 9.39699 23.9998 11.116 23.9998H12.689C14.514 23.9998 15.999 22.5158 15.999 20.6898C15.999 19.6528 16.406 18.7188 17.115 18.1288C18.944 16.6068 19.993 14.3738 19.993 12.0038C19.993 9.72776 19.018 7.55076 17.319 6.03276L17.32 6.03376ZM15.196 15.8238C14.49 16.4118 13.938 17.1578 13.563 17.9998H13.5V13.7918C14.142 13.4458 14.655 12.8908 14.937 12.2118C15.177 11.6318 14.702 10.9998 14.074 10.9998H9.92599C9.29899 10.9998 8.82299 11.6328 9.06299 12.2118C9.34399 12.8908 9.85799 13.4458 10.5 13.7918V17.9998H10.366C10.014 17.2438 9.52799 16.5648 8.91399 16.0168C7.84099 15.0558 6.79099 13.1818 7.02599 11.3398C7.31099 9.09876 9.14999 7.28676 11.398 7.03276C11.598 7.01076 11.796 6.99976 11.993 6.99976C13.227 6.99976 14.392 7.44076 15.322 8.27076C16.384 9.21976 16.994 10.5808 16.994 12.0038C16.994 13.4808 16.339 14.8718 15.196 15.8228V15.8238ZM16.358 2.21176L17.278 0.714763C17.712 0.00876325 18.636 -0.211237 19.341 0.221763C20.047 0.655763 20.268 1.57876 19.834 2.28476L18.914 3.78176C18.631 4.24276 18.139 4.49676 17.635 4.49676C17.366 4.49676 17.096 4.42576 16.851 4.27476C16.145 3.84076 15.924 2.91776 16.358 2.21176ZM23.115 7.30576L21.687 7.95076C21.487 8.04176 21.277 8.08376 21.071 8.08376C20.5 8.08376 19.954 7.75576 19.703 7.20076C19.362 6.44576 19.698 5.55676 20.453 5.21676L21.881 4.57176C22.637 4.22876 23.524 4.56676 23.865 5.32176C24.206 6.07676 23.87 6.96576 23.115 7.30576ZM4.08299 2.28376C3.64899 1.57776 3.87099 0.653763 4.57699 0.221763C5.28399 -0.212237 6.20699 0.00876325 6.63899 0.715763L7.55699 2.21276C7.99099 2.91876 7.76899 3.84276 7.06299 4.27476C6.81799 4.42476 6.54699 4.49676 6.27999 4.49676C5.77599 4.49676 5.28299 4.24276 5.00099 3.78076L4.08299 2.28376ZM4.16199 7.27676C3.90399 7.81476 3.36799 8.12876 2.80799 8.12876C2.58999 8.12876 2.36999 8.08176 2.16099 7.98176L0.853994 7.35576C0.106994 6.99776 -0.208006 6.10176 0.149994 5.35376C0.507994 4.60576 1.40599 4.29176 2.15099 4.64976L3.45799 5.27576C4.20499 5.63276 4.51999 6.52976 4.16199 7.27676Z" fill="#3E2429"/>
</g>
<defs>
<clipPath id="clip0_87_345">
<rect width="24" height="24" fill="white"/>
</clipPath>
</defs>
</svg>
