<svg width="24" height="24" viewBox="0 0 24 24" fill="none" xmlns="http://www.w3.org/2000/svg">
<path d="M18.5 2H5.5C2.468 2 0 4.467 0 7.5V16.5C0 19.533 2.468 22 5.5 22H18.5C21.532 22 24 19.533 24 16.5V7.5C24 4.467 21.532 2 18.5 2ZM21 16.5C21 17.878 19.879 19 18.5 19H5.5C4.121 19 3 17.878 3 16.5V7.5C3 6.122 4.121 5 5.5 5H18.5C19.879 5 21 6.122 21 7.5V16.5ZM19 9.5C19 10.329 18.328 11 17.5 11H16.5C15.672 11 15 10.329 15 9.5C15 8.671 15.672 8 16.5 8H17.5C18.328 8 19 8.671 19 9.5ZM19 14.5C19 15.329 18.328 16 17.5 16H16.5C15.672 16 15 15.329 15 14.5C15 13.671 15.672 13 16.5 13H17.5C18.328 13 19 13.671 19 14.5ZM13.5 12.5C13.5 13.38 13.238 14.194 12.801 14.887L10.293 12.379C10.105 12.191 10 11.937 10 11.672V8.121C12.002 8.577 13.5 10.36 13.5 12.501V12.5ZM8.586 13.5L11.387 16.302C10.484 16.871 9.375 17.144 8.184 16.926C6.332 16.587 4.835 15.064 4.553 13.202C4.184 10.759 5.782 8.626 8 8.121V12.086C8 12.616 8.211 13.125 8.586 13.5Z" fill="#3E2429"/>
</svg>
