<svg width="24" height="24" viewBox="0 0 24 24" fill="none" xmlns="http://www.w3.org/2000/svg">
<g clip-path="url(#clip0_87_333)">
<path d="M22.795 9.00019C22.313 9.00019 21.877 9.28719 21.687 9.73019L21.143 11.0002H18.438C19.324 9.58619 19.149 7.75219 17.968 6.54919C17.857 6.43519 14.106 3.12419 13.998 3.02319C13.322 2.35619 12.441 2.02119 11.554 2.01019C11.252 1.70319 10.917 1.42019 10.553 1.16819C8.334 -0.366807 5.33 -0.402807 3.081 1.07819C1.042 2.42219 -0.105996 4.66319 0.00600402 7.00019C0.00600402 10.4312 0.398004 12.9462 2.35 14.8802C2.42 14.9502 6.466 18.5622 6.538 18.6292C7.484 19.5952 8.805 20.0892 10.136 19.9872C11.48 19.8842 12.706 19.1932 13.511 18.0732L16.36 14.0002H21.142L21.686 15.2702C21.876 15.7132 22.312 16.0002 22.794 16.0002C23.46 16.0002 23.999 15.4602 23.999 14.7952V10.2062C23.999 9.54019 23.459 9.00119 22.794 9.00119L22.795 9.00019ZM4.732 3.58319C5.834 2.85819 7.318 2.81419 8.483 3.42519C7.992 3.81219 4.344 6.66219 3.018 7.72519C3.012 7.46719 3.005 7.21219 3.005 6.92819C2.942 5.58819 3.587 4.33719 4.733 3.58219L4.732 3.58319ZM11.065 16.3372C10.785 16.7262 10.374 16.9592 9.908 16.9952C9.451 17.0262 9.01 16.8642 8.609 16.4602L4.476 12.7632C4.143 12.4232 3.975 11.9712 4.003 11.4882C4.031 11.0102 4.248 10.5852 4.613 10.2912C6.018 9.16019 10.489 5.66819 11.18 5.11819C11.434 4.91019 11.771 4.99719 11.972 5.23819L15.85 8.67819C16.035 8.89119 16.05 9.21619 15.871 9.46519L11.064 16.3392L11.065 16.3372ZM23.998 18.9742C23.959 19.6432 23.777 20.5332 23.154 21.1692C22.684 21.6502 22.065 21.8562 21.5 21.9412V22.4992C21.5 23.3272 20.828 23.9992 20 23.9992C19.172 23.9992 18.5 23.3272 18.5 22.4992V21.9412C17.941 21.8552 17.323 21.6482 16.837 21.1612C16.172 20.4962 16.014 19.5782 16.001 18.9132C15.991 18.4092 16.412 17.9882 16.916 17.9982C17.581 18.0112 18.499 18.1702 19.164 18.8342C19.988 19.6582 20.031 20.8602 19.988 21.4972H20.004C19.998 20.8642 20.101 19.6772 20.899 18.8612C21.522 18.2242 22.393 18.0382 23.048 17.9982C23.59 17.9652 24.032 18.4172 24 18.9712L23.998 18.9742Z" fill="#3E2429"/>
</g>
<defs>
<clipPath id="clip0_87_333">
<rect width="24" height="24" fill="white"/>
</clipPath>
</defs>
</svg>
