<svg width="45" height="45" viewBox="0 0 45 45" fill="none" xmlns="http://www.w3.org/2000/svg">
<path d="M28.2956 29.9944C40.6162 29.9325 45 23.4075 45 17.8125C45 14.6681 42.7744 12.0375 39.8175 11.4019C40.0725 10.6762 40.2938 10.0106 40.4437 9.50625C41.1056 7.26938 40.6763 4.905 39.2681 3.02062C37.8319 1.1025 35.6362 0 33.2419 0H11.7581C9.36375 0 7.16625 1.1025 5.73 3.0225C4.32188 4.90688 3.89438 7.27125 4.55625 9.50625C4.70625 10.0106 4.92562 10.6762 5.1825 11.4019C2.22562 12.0375 0 14.6681 0 17.8125C0 23.4075 4.38563 29.9325 16.7044 29.9944C16.8094 30.5606 16.875 31.1381 16.875 31.725V37.5C16.875 40.9238 13.995 41.235 13.125 41.25H11.25C10.2131 41.25 9.375 42.0881 9.375 43.125C9.375 44.1619 10.2131 45 11.25 45H33.75C34.7869 45 35.625 44.1619 35.625 43.125C35.625 42.0881 34.7869 41.25 33.75 41.25H31.89C31.005 41.235 28.125 40.9238 28.125 37.5V31.725C28.125 31.1381 28.1906 30.5606 28.2956 29.9944ZM38.4375 15C39.9881 15 41.25 16.2619 41.25 17.8125C41.25 21.6262 38.2331 25.6819 29.9325 26.1938C30.3469 25.6331 30.8212 25.1138 31.3612 24.6544C34.6219 21.8831 36.8606 18.18 38.3494 14.9812C38.3812 14.9812 38.4056 15 38.4375 15ZM3.75 17.8125C3.75 16.2619 5.01188 15 6.5625 15C6.59438 15 6.62063 14.9831 6.65062 14.9812C8.13937 18.18 10.3763 21.8813 13.6388 24.6544C14.1788 25.1138 14.6531 25.6313 15.0675 26.1938C6.76688 25.6819 3.75 21.6262 3.75 17.8125ZM19.7119 41.25C20.265 40.2356 20.625 39.0112 20.625 37.5V31.725C20.625 27.8794 18.9638 24.2625 16.0669 21.7987C12.75 18.9788 9.79125 13.9856 8.1525 8.445C7.83 7.35188 8.04 6.195 8.73563 5.26875C9.45562 4.30312 10.5581 3.75 11.7581 3.75H33.24C34.44 3.75 35.5425 4.30312 36.2625 5.26688C36.9544 6.195 37.1662 7.35187 36.8456 8.44312C35.205 13.9875 32.2463 18.9788 28.9313 21.7987C26.0344 24.2606 24.3731 27.8794 24.3731 31.725V37.5C24.3731 39.0112 24.7313 40.2356 25.2863 41.25H19.7119ZM18.3581 18.3056C17.8631 17.9644 17.655 17.3344 17.8519 16.7644L18.825 13.7531L16.2638 11.8781C15.6506 11.4281 15.5175 10.5675 15.9675 9.95438C16.2262 9.60188 16.6388 9.39187 17.0756 9.39187H20.2275L21.1856 6.405C21.4275 5.67937 22.2113 5.28938 22.9369 5.53125C23.3494 5.66813 23.6737 5.9925 23.8106 6.405L24.7669 9.39187H27.9188C28.6781 9.39187 29.295 10.0069 29.295 10.7681C29.295 11.2087 29.085 11.6213 28.7306 11.88L26.1694 13.755L27.1425 16.7663C27.375 17.49 26.9775 18.2662 26.2519 18.5006C25.8319 18.6356 25.3725 18.5606 25.0163 18.3L22.4981 16.4475L19.9781 18.2981C19.4981 18.6562 18.8419 18.6581 18.3581 18.3056Z" fill="#3E2429"/>
</svg>
