<svg width="45" height="45" viewBox="0 0 45 45" fill="none" xmlns="http://www.w3.org/2000/svg">
<g clip-path="url(#clip0_89_602)">
<path d="M45 22.5C45 23.5369 44.1619 24.375 43.125 24.375H41.25V26.25C41.25 27.2869 40.4119 28.125 39.375 28.125C38.3381 28.125 37.5 27.2869 37.5 26.25V24.375H35.625C34.5881 24.375 33.75 23.5369 33.75 22.5C33.75 21.4631 34.5881 20.625 35.625 20.625H37.5V18.75C37.5 17.7131 38.3381 16.875 39.375 16.875C40.4119 16.875 41.25 17.7131 41.25 18.75V20.625H43.125C44.1619 20.625 45 21.4631 45 22.5ZM31.875 18.75C31.875 15.6488 29.3512 13.125 26.25 13.125C23.1488 13.125 20.625 15.6488 20.625 18.75C20.625 19.7869 21.465 20.625 22.5 20.625C23.535 20.625 24.375 19.7869 24.375 18.75C24.375 17.7131 25.215 16.875 26.25 16.875C27.285 16.875 28.125 17.715 28.125 18.75C28.125 20.9869 26.3456 22.5244 24.4594 24.15C22.575 25.7738 20.625 27.4556 20.625 30C20.625 31.0369 21.465 31.875 22.5 31.875H30C31.0369 31.875 31.875 31.0369 31.875 30C31.875 28.9631 31.0369 28.125 30 28.125H25.6331C26.025 27.7519 26.4694 27.3675 26.9081 26.9888C29.1225 25.08 31.875 22.7062 31.875 18.75ZM15 31.875C16.035 31.875 16.875 31.0369 16.875 30V15.5756C16.875 14.5594 16.2638 13.665 15.3169 13.2956C14.3719 12.9244 13.3162 13.1681 12.6187 13.9219L9.37125 17.4862C8.67375 18.2531 8.73 19.4381 9.495 20.1356C10.2619 20.835 11.4469 20.775 12.1444 20.0138L13.125 18.9375V30C13.125 31.0369 13.965 31.875 15 31.875ZM40.8131 32.1788C39.9469 31.6144 38.7862 31.8581 38.2181 32.7262C34.74 38.0644 28.8638 41.25 22.5 41.25C12.1613 41.25 3.75 32.8387 3.75 22.5C3.75 12.1613 12.1613 3.75 22.5 3.75C28.8638 3.75 34.7381 6.93563 38.2181 12.2738C38.7844 13.1419 39.9487 13.3856 40.8131 12.8212C41.6813 12.255 41.9269 11.0944 41.3606 10.2262C37.185 3.82313 30.135 0 22.5 0C10.0931 0 0 10.0931 0 22.5C0 34.9069 10.0931 45 22.5 45C30.1331 45 37.185 41.1769 41.3606 34.7738C41.9269 33.9075 41.6813 32.745 40.8131 32.1788Z" fill="#3E2429"/>
</g>
<defs>
<clipPath id="clip0_89_602">
<rect width="45" height="45" fill="white"/>
</clipPath>
</defs>
</svg>
