<svg width="28" height="28" viewBox="0 0 28 28" fill="none" xmlns="http://www.w3.org/2000/svg">
<path d="M9.33333 27.4167C9.33333 27.7387 9.072 28 8.75 28H4.08333C1.83167 28 0 26.1683 0 23.9167V4.08333C0 1.83167 1.83167 0 4.08333 0H8.75C9.072 0 9.33333 0.261333 9.33333 0.583333C9.33333 0.905333 9.072 1.16667 8.75 1.16667H4.08333C2.47567 1.16667 1.16667 2.4745 1.16667 4.08333V23.9167C1.16667 25.5255 2.47567 26.8333 4.08333 26.8333H8.75C9.072 26.8333 9.33333 27.0947 9.33333 27.4167ZM28 14C28 13.4482 27.7853 12.929 27.3933 12.5382L21.994 7.17033C21.7653 6.94517 21.3967 6.94517 21.1692 7.17267C20.9417 7.40133 20.9428 7.77117 21.1715 7.9975C21.1715 7.9975 26.5907 13.4003 26.6058 13.4178H6.41667C6.09467 13.4178 5.83333 13.6792 5.83333 14.0012C5.83333 14.3232 6.09467 14.5845 6.41667 14.5845H26.6035C26.5907 14.5997 21.1715 20.0048 21.1715 20.0048C20.9428 20.2312 20.9417 20.6022 21.1692 20.8297C21.2835 20.9452 21.4328 21.0012 21.5822 21.0012C21.7303 21.0012 21.8797 20.944 21.994 20.8308L27.3933 15.4595C27.7842 15.0698 27.9977 14.553 27.9988 14.0023L28 14Z" fill="black"/>
</svg>
